Coordinates
version=1
nRows=10
nColumns=40
inDegrees=yes

Units are S.I. units (second, meters, Newtons, ...)
If the header above contains a line with 'inDegrees', this indicates whether rotational values are in degrees (yes) or radians (no).

endheader
time	pelvis_tilt	pelvis_list	pelvis_rotation	pelvis_tx	pelvis_ty	pelvis_tz	hip_flexion_r	hip_adduction_r	hip_rotation_r	knee_angle_r	knee_angle_r_beta	ankle_angle_r	subtalar_angle_r	mtp_angle_r	hip_flexion_l	hip_adduction_l	hip_rotation_l	knee_angle_l	knee_angle_l_beta	ankle_angle_l	subtalar_angle_l	mtp_angle_l	lumbar_extension	lumbar_bending	lumbar_rotation	arm_flex_r	arm_add_r	arm_rot_r	elbow_flex_r	pro_sup_r	wrist_flex_r	wrist_dev_r	arm_flex_l	arm_add_l	arm_rot_l	elbow_flex_l	pro_sup_l	wrist_flex_l	wrist_dev_l
      2.00000000	      7.84947058	      3.73886509	      0.51489783	     -0.38768940	      0.94122006	     -0.76160812	     24.91751512	     -1.13640330	     -4.50658760	     54.35514314	      0.94867621	     14.59836359	      0.00000000	      0.00000000	     47.98815384	      4.22219239	      4.04870196	     13.11690830	      0.22893324	     -3.04650255	      0.00000000	      0.00000000	    -34.62584627	     -1.52215385	     -1.30289777	     89.83589955	    -12.77952167	     17.62788953	     47.49790143	     87.24578842	      0.00000000	      0.00000000	     89.88032408	     -9.30548338	     14.43080168	     47.78396720	     86.30527758	      0.00000000	      0.00000000
      2.00500000	      7.85144754	      3.75258332	      0.50527170	     -0.38787817	      0.94016104	     -0.76169465	     25.07729274	     -1.17837401	     -4.51103046	     54.65918263	      0.95398270	     14.73942584	      0.00000000	      0.00000000	     48.10641028	      4.21114461	      4.08615985	     13.13786866	      0.22929906	     -3.03589162	      0.00000000	      0.00000000	    -34.68427807	     -1.51567887	     -1.28510400	     89.83746107	    -12.77169616	     17.53300280	     47.56542411	     87.26715868	      0.00000000	      0.00000000	     89.88138900	     -9.28402851	     14.37967644	     47.84704908	     86.13643325	      0.00000000	      0.00000000
      2.01000000	      7.83197330	      3.73144628	      0.53065791	     -0.38811329	      0.93909391	     -0.76177749	     25.25898315	     -1.19431251	     -4.55614794	     54.95424314	      0.95913248	     14.87115493	      0.00000000	      0.00000000	     48.25227449	      4.19299163	      4.06293851	     13.15302201	      0.22956354	     -3.08286992	      0.00000000	      0.00000000	    -34.73233489	     -1.46989821	     -1.27762024	     89.83990784	    -12.76037147	     17.42041668	     47.62162436	     87.36068281	      0.00000000	      0.00000000	     89.88182808	     -9.22416735	     14.28171998	     47.85055602	     86.01991651	      0.00000000	      0.00000000
      2.01500000	      7.81705994	      3.71891090	      0.51760949	     -0.38830535	      0.93808595	     -0.76181417	     25.41779080	     -1.20543851	     -4.58450085	     55.21519596	      0.96368697	     15.01793285	      0.00000000	      0.00000000	     48.36772743	      4.14730349	      4.01229246	     13.12674406	      0.22910490	     -3.15339705	      0.00000000	      0.00000000	    -34.78174413	     -1.43865814	     -1.25610014	     89.84174478	    -12.73589377	     17.37067368	     47.68796130	     87.20964459	      0.00000000	      0.00000000	     89.88311723	     -9.23963065	     14.19883875	     47.93566586	     86.33223616	      0.00000000	      0.00000000
      2.02000000	      7.83460084	      3.70803212	      0.52377842	     -0.38848331	      0.93704966	     -0.76189475	     25.55903485	     -1.22076850	     -4.60507667	     55.51770342	      0.96896672	     15.14468797	      0.00000000	      0.00000000	     48.47190175	      4.11871142	      4.02480229	     13.15639648	      0.22962244	     -3.17665491	      0.00000000	      0.00000000	    -34.85843169	     -1.41295372	     -1.25380277	     89.84385273	    -12.72549983	     17.28217721	     47.73265268	     87.27881856	      0.00000000	      0.00000000	     89.88376628	     -9.21727246	     14.16211116	     47.98194168	     86.14913704	      0.00000000	      0.00000000
      2.02500000	      7.79485837	      3.67268707	      0.54149891	     -0.38867838	      0.93591402	     -0.76198240	     25.75797737	     -1.22448461	     -4.66153427	     55.80240412	      0.97393568	     15.23579990	      0.00000000	      0.00000000	     48.64934825	      4.08029105	      4.05286708	     13.20945504	      0.23054848	     -3.15294099	      0.00000000	      0.00000000	    -34.86878667	     -1.34897404	     -1.22876170	     89.84477447	    -12.71305664	     17.19555260	     47.78310604	     87.33907974	      0.00000000	      0.00000000	     89.88579033	     -9.21946238	     14.19345429	     48.04311661	     85.88581376	      0.00000000	      0.00000000
      2.03000000	      7.78038665	      3.67585404	      0.51209768	     -0.38887499	      0.93486827	     -0.76199894	     25.93721886	     -1.23214654	     -4.63984464	     56.09168964	      0.97898467	     15.40283442	      0.00000000	      0.00000000	     48.76112141	      4.04241635	      3.98876161	     13.18500509	      0.23012175	     -3.11914070	      0.00000000	      0.00000000	    -34.91171857	     -1.36642300	     -1.19794789	     89.84676444	    -12.70859241	     17.13796500	     47.78673900	     87.30059306	      0.00000000	      0.00000000	     89.88614480	     -9.17072924	     14.06273300	     48.05607945	     85.82166999	      0.00000000	      0.00000000
      2.03500000	      7.81788935	      3.63361076	      0.54002303	     -0.38902222	      0.93387606	     -0.76209393	     26.03669389	     -1.21830518	     -4.68735603	     56.35711369	      0.98361719	     15.50942592	      0.00000000	      0.00000000	     48.86129619	      3.98642293	      3.88446173	     13.20603715	      0.23048883	     -3.37678371	      0.00000000	      0.00000000	    -35.01277946	     -1.28619043	     -1.18417026	     89.84875844	    -12.68899986	     17.06134103	     47.85964392	     87.18559093	      0.00000000	      0.00000000	     89.88672825	     -9.15199342	     13.96474693	     48.12635402	     86.30148659	      0.00000000	      0.00000000
      2.04000000	      7.81355967	      3.62468884	      0.54221070	     -0.38923543	      0.93289822	     -0.76214854	     26.18340019	     -1.21668545	     -4.66678175	     56.60169039	      0.98788586	     15.55121754	      0.00000000	      0.00000000	     48.90497001	      3.96779851	      4.03834752	     13.06835388	      0.22808580	     -3.60282342	      0.00000000	      0.00000000	    -35.10376184	     -1.26105395	     -1.14042786	     89.84985171	    -12.89909942	     17.39860727	     48.18651959	     87.07283057	      0.00000000	      0.00000000	     89.88700002	     -9.33706173	     14.53886331	     48.49121580	     84.98519123	      0.00000000	      0.00000000
      2.04500000	      7.79689757	      3.61263118	      0.51245199	     -0.38939403	      0.93173828	     -0.76217115	     26.37477405	     -1.21997884	     -4.67626023	     56.92712568	      0.99356578	     15.77375137	      0.00000000	      0.00000000	     49.12519365	      3.90313439	      3.87357979	     13.25769705	      0.23139046	     -3.40003070	      0.00000000	      0.00000000	    -35.10447150	     -1.25806618	     -1.12839670	     89.85167465	    -12.66742687	     16.91614331	     47.94367321	     87.18804245	      0.00000000	      0.00000000	     89.88844568	     -9.07913084	     13.78385107	     48.19902773	     86.28297601	      0.00000000	      0.00000000
